<svg width="46" height="24" viewBox="0 0 46 24" fill="none" xmlns="http://www.w3.org/2000/svg">
<path d="M11 0H16.9L10.8 3.8V19.7L5.5 23.5H0L5 19.7V3.8L11 0Z" fill="#2A8BF4"/>
<path d="M19 0H24.8L18.8 3.8V19.7L13.4 23.5H8L12.9 19.7V3.8L19 0Z" fill="#EE701E"/>
<path d="M37.82 6.25998C37.82 6.35332 37.78 6.43332 37.7 6.49998C37.6334 6.55332 37.5667 6.57998 37.5 6.57998C37.38 6.57998 37.1867 6.59332 36.92 6.61998C36.6667 6.64665 36.3867 6.67998 36.08 6.71998C35.7867 6.74665 35.4934 6.77998 35.2 6.81998C34.92 6.84665 34.6934 6.87332 34.52 6.89998C34.4667 6.89998 34.3534 6.90665 34.18 6.91998C34.02 6.93332 33.8334 6.95332 33.62 6.97998C33.42 6.99332 33.2134 7.01332 33 7.03998C32.8 7.06665 32.64 7.08665 32.52 7.09998C32.3734 7.12665 32.16 7.17332 31.88 7.23998C31.6 7.30665 31.3467 7.37332 31.12 7.43998C31.04 7.46665 30.9667 7.48665 30.9 7.49998C30.8334 7.51332 30.78 7.52665 30.74 7.53998C30.6867 7.55332 30.64 7.56665 30.6 7.57998L31.68 11.4C31.72 11.52 31.7867 11.7133 31.88 11.98C31.9734 12.2466 32.08 12.54 32.2 12.86C32.3334 13.18 32.4667 13.5133 32.6 13.86C32.7467 14.2067 32.8734 14.5267 32.98 14.82C33.0467 14.9933 33.12 15.2067 33.2 15.46C33.28 15.7133 33.3534 15.9733 33.42 16.24C33.4867 16.4933 33.54 16.7267 33.58 16.94C33.6334 17.1533 33.66 17.3 33.66 17.38C33.66 17.5667 33.6067 17.76 33.5 17.96C33.3934 18.1733 33.2534 18.28 33.08 18.28C32.92 18.28 32.84 18.1667 32.84 17.94V17.8C32.84 17.76 32.84 17.7133 32.84 17.66C32.8534 17.6067 32.86 17.5467 32.86 17.48C32.86 17.3733 32.82 17.1933 32.74 16.94C32.66 16.6733 32.56 16.38 32.44 16.06C32.32 15.7266 32.1867 15.38 32.04 15.02C31.9067 14.6466 31.7734 14.3 31.64 13.98C31.52 13.6466 31.4134 13.3667 31.32 13.14C31.2267 12.9 31.1667 12.74 31.14 12.66C31.1 12.5533 31.0467 12.4 30.98 12.2C30.9267 12 30.86 11.7733 30.78 11.52C30.7 11.2667 30.6134 11 30.52 10.72C30.44 10.4267 30.36 10.14 30.28 9.85998C30.08 9.20665 29.86 8.49332 29.62 7.71998C29.5534 7.73332 29.3334 7.76665 28.96 7.81998C28.6 7.85998 28.1934 7.90665 27.74 7.95998C27.2867 8.01332 26.8534 8.06665 26.44 8.11998C26.0267 8.15998 25.7467 8.17998 25.6 8.17998C25.2667 8.17998 25.0534 8.12665 24.96 8.01998C24.8667 7.91332 24.8134 7.77998 24.8 7.61998C24.8 7.51332 24.8267 7.40665 24.88 7.29998C24.9334 7.17998 25.0067 7.11998 25.1 7.11998C25.2067 7.11998 25.2934 7.13998 25.36 7.17998C25.4134 7.20665 25.4867 7.21998 25.58 7.21998C25.6067 7.21998 25.74 7.20665 25.98 7.17998C26.2334 7.15332 26.5267 7.11998 26.86 7.07998C27.2067 7.03998 27.56 6.99998 27.92 6.95998C28.2934 6.91998 28.62 6.88665 28.9 6.85998C28.9667 6.85998 29.0334 6.85998 29.1 6.85998C29.18 6.84665 29.2534 6.83332 29.32 6.81998C29.3867 6.80665 29.4534 6.79998 29.52 6.79998C29.52 6.75998 29.54 6.67332 29.58 6.53998C29.6334 6.39332 29.6867 6.31998 29.74 6.31998C29.8734 6.31998 29.98 6.37332 30.06 6.47998C30.1534 6.57332 30.2334 6.63998 30.3 6.67998C30.3934 6.66665 30.5334 6.63998 30.72 6.59998C30.92 6.54665 31.1267 6.49998 31.34 6.45998C31.5667 6.41998 31.78 6.38665 31.98 6.35998C32.1934 6.31998 32.3734 6.29332 32.52 6.27998L34.86 6.13998C35.06 6.12665 35.2867 6.11332 35.54 6.09998C35.8067 6.07332 36.0667 6.04665 36.32 6.01998C36.5734 5.99332 36.7934 5.97332 36.98 5.95998C37.1667 5.93332 37.2934 5.91998 37.36 5.91998C37.48 5.93332 37.5867 5.97332 37.68 6.03998C37.7734 6.10665 37.82 6.17998 37.82 6.25998Z" fill="#2A8BF4"/>
<path d="M45.3602 18.32C45.3868 18.4 45.4135 18.4733 45.4402 18.54C45.4668 18.6067 45.4868 18.68 45.5002 18.76C45.5268 18.84 45.5402 18.9133 45.5402 18.98C45.5402 19.0733 45.5068 19.1467 45.4402 19.2C45.3735 19.2667 45.2935 19.32 45.2002 19.36C45.1202 19.4 45.0402 19.4267 44.9602 19.44C44.8802 19.4533 44.8335 19.46 44.8202 19.46C44.7402 19.46 44.5935 19.2133 44.3802 18.72C44.1668 18.24 43.9335 17.56 43.6802 16.68C43.4402 15.8 43.1935 14.7533 42.9402 13.54C42.6868 12.3267 42.4802 10.9933 42.3202 9.54C42.2935 9.84667 42.2402 10.2067 42.1602 10.62C42.0935 11.02 41.9868 11.4 41.8402 11.76C41.6935 12.12 41.5002 12.4267 41.2602 12.68C41.0335 12.92 40.7402 13.04 40.3802 13.04C40.1268 13.04 39.8402 12.9067 39.5202 12.64C39.2002 12.3733 38.8868 12.06 38.5802 11.7C38.2868 11.3267 38.0135 10.9533 37.7602 10.58C37.5202 10.1933 37.3402 9.88 37.2202 9.64C37.2735 10.2267 37.3602 10.9333 37.4802 11.76C37.6135 12.5867 37.8135 13.46 38.0802 14.38C38.1068 14.4733 38.1335 14.5467 38.1602 14.6C38.2002 14.64 38.2335 14.6867 38.2602 14.74C38.3002 14.7933 38.3268 14.8533 38.3402 14.92C38.3668 14.9733 38.3802 15.06 38.3802 15.18C38.3802 15.3533 38.3135 15.48 38.1802 15.56C38.0468 15.64 37.9202 15.68 37.8002 15.68C37.7335 15.68 37.6468 15.58 37.5402 15.38C37.4335 15.1667 37.3202 14.8933 37.2002 14.56C37.0802 14.2267 36.9602 13.86 36.8402 13.46C36.7202 13.0467 36.6068 12.64 36.5002 12.24C36.4068 11.84 36.3268 11.4667 36.2602 11.12C36.1935 10.76 36.1602 10.4733 36.1602 10.26C36.1602 9.91333 36.1735 9.67333 36.2002 9.54C36.2402 9.40667 36.2935 9.30667 36.3602 9.24V8.02C36.3602 7.83333 36.4068 7.69333 36.5002 7.6C36.6068 7.49333 36.7402 7.44 36.9002 7.44C37.0335 7.44 37.1868 7.55333 37.3602 7.78C37.5335 8.00667 37.7202 8.29333 37.9202 8.64C38.1335 8.98667 38.3535 9.36 38.5802 9.76C38.8068 10.16 39.0268 10.5333 39.2402 10.88C39.4668 11.2267 39.6802 11.5133 39.8802 11.74C40.0935 11.9667 40.2935 12.08 40.4802 12.08C40.6535 12.08 40.8202 11.92 40.9802 11.6C41.1402 11.2667 41.2868 10.8333 41.4202 10.3C41.5668 9.76667 41.6935 9.16 41.8002 8.48C41.9068 7.8 41.9935 7.10667 42.0602 6.4C42.0602 6.32 42.0535 6.23333 42.0402 6.14C42.0268 6.03333 42.0202 5.92 42.0202 5.8C42.0202 5.64 42.0535 5.46667 42.1202 5.28C42.2002 5.09333 42.3468 5 42.5602 5C42.6802 5 42.7735 5.03333 42.8402 5.1C42.9202 5.16667 42.9735 5.25333 43.0002 5.36C43.0268 5.45333 43.0402 5.55333 43.0402 5.66C43.0535 5.75333 43.0602 5.83333 43.0602 5.9C43.0602 6.00667 43.0468 6.18667 43.0202 6.44C43.0068 6.68 43.0002 7.05333 43.0002 7.56C43.0002 8 43.0335 8.51333 43.1002 9.1C43.1668 9.67333 43.2535 10.2867 43.3602 10.94C43.4802 11.58 43.6135 12.2467 43.7602 12.94C43.9202 13.62 44.0868 14.2867 44.2602 14.94C44.4468 15.5933 44.6268 16.2133 44.8002 16.8C44.9868 17.3733 45.1735 17.88 45.3602 18.32Z" fill="#EE701E"/>
</svg>
